<svg width="190" height="48" viewBox="0 0 190 48" fill="none" xmlns="http://www.w3.org/2000/svg">
<path d="M11.4906 22.7635V47.5403H0V29.8811H3.6414V44.1162H7.83303V26.2034H0V22.7635H11.4906Z" fill="white"/>
<path d="M26.6065 22.7635V40.4227H22.9489V26.2034H18.7572V44.1162H33.2419V47.5403H15.0996V22.7635H26.6065Z" fill="white"/>
<path d="M46.626 22.7635V40.4227H42.9846V26.2034H38.793V44.1162H53.2777V47.5403H35.1354V22.7635H46.626Z" fill="white"/>
<path d="M66.6618 38.7583C66.6661 39.0073 66.62 39.2547 66.5261 39.4862C66.4323 39.7177 66.2925 39.9287 66.115 40.1071C65.9374 40.2854 65.7256 40.4275 65.4917 40.5252C65.2578 40.6229 65.0064 40.6743 64.7521 40.6764C64.0238 40.6764 63.0042 40.1532 63.0042 38.7583V26.2034H58.8126V37.4901C58.8126 43.3395 62.6158 44.4967 64.7035 44.4967C66.7913 44.4967 70.8535 43.0066 70.8535 37.4901V22.7635H74.5111V37.1731C74.5111 45.2418 68.6524 47.9366 64.7521 47.9366C60.8518 47.9366 55.1712 45.2418 55.1712 37.1731V22.7635H66.6618V38.7583Z" fill="white"/>
<path d="M95.2266 28.1532C93.1222 26.6314 90.5758 25.8093 87.96 25.8071C83.04 25.8071 81.5996 29.1995 81.5996 31.4663C81.5996 33.1466 82.1823 36.539 87.345 37.1413C87.9276 37.2048 89.2223 37.3791 89.2223 38.8375C89.2223 40.2959 87.8952 40.613 87.3126 40.6764C81.7777 41.2153 77.7641 36.0793 77.7641 31.5456C77.7641 26.6632 81.454 22.3831 87.7819 22.3831C90.4523 22.3831 93.1226 23.1916 95.2266 24.2536V28.1532ZM79.787 42.1665C81.8965 43.6767 84.4407 44.4925 87.0536 44.4967C91.9412 44.4967 93.414 41.1044 93.414 38.8375C93.414 37.2048 92.8475 33.8441 87.6686 33.1783C87.1346 33.0991 85.7913 32.9247 85.7913 31.4663C85.7913 30.0079 87.1022 29.7067 87.7172 29.6275C93.2359 29.1044 97.2496 34.1929 97.2496 38.7583C97.2496 43.6566 93.5596 47.9366 87.2317 47.9366C84.5613 47.9366 81.891 47.1282 79.787 46.0502V42.1665Z" fill="white"/>
<path d="M112.365 22.7635V47.5403H100.875V29.8811H104.516V44.1162H108.724V26.2034H100.875V22.7635H112.365Z" fill="white"/>
<path d="M128.711 22.3831C132.171 22.3831 135.489 23.7292 137.935 26.1253C140.381 28.5214 141.756 31.7712 141.756 35.1598C141.756 38.5484 140.381 41.7983 137.935 44.1944C135.489 46.5905 132.171 47.9366 128.711 47.9366C121.558 47.9366 115.618 42.2298 115.618 35.0172C115.618 28.074 121.445 22.3831 128.711 22.3831ZM119.276 35.1916C119.276 40.2801 123.354 44.4967 128.679 44.4967C134.003 44.4967 138.098 40.2801 138.098 35.1916C138.098 30.103 133.874 25.8071 128.679 25.8071C123.484 25.8071 119.276 29.9445 119.276 35.1916ZM128.825 32.9881C127.336 32.9564 126.429 34.066 126.429 35.1598C126.429 36.2536 127.336 37.3474 128.825 37.3157V40.6764C125.021 40.613 123.176 37.5694 123.176 35.1123C123.176 32.6552 125.054 29.7384 128.825 29.6275V32.9881Z" fill="white"/>
<path d="M159.768 30.3408V34.6684L149.038 28.3593V47.5403H145.381V22.1295L159.768 30.3408ZM167.245 22.7635V48L152.858 39.7887V35.4769L163.604 41.7067V22.7635H167.245Z" fill="white"/>
<path d="M187.961 28.1532C185.862 26.6316 183.321 25.8093 180.71 25.8071C175.79 25.8071 174.35 29.1995 174.35 31.4663C174.35 33.1466 174.916 36.539 180.095 37.1413C180.662 37.2048 181.973 37.3791 181.973 38.8375C181.973 40.2959 180.629 40.613 180.063 40.6764C174.528 41.2153 170.514 36.0793 170.514 31.5456C170.514 26.6632 174.204 22.3831 180.516 22.3831C183.203 22.3831 185.873 23.1916 187.961 24.2536V28.1532ZM172.537 42.1665C174.647 43.6767 177.191 44.4925 179.804 44.4967C184.675 44.4967 186.164 41.1044 186.164 38.8375C186.164 37.2048 185.582 33.8441 180.419 33.1783C179.869 33.0991 178.542 32.9247 178.542 31.4663C178.542 30.0079 179.836 29.7067 180.451 29.6275C185.986 29.1044 190 34.1929 190 38.7583C190 43.6566 186.31 47.9366 179.982 47.9366C177.312 47.9366 174.625 47.1282 172.537 46.0502V42.1665Z" fill="white"/>
<path d="M38.6797 0.221913L41.3339 10.716L44.0042 0.221913H46.9659L49.8305 10.716L52.3876 0.221913H55.333L51.2708 15.8679H47.9693L45.2666 5.83354L42.6286 15.8679H39.3271L35.0707 0.221913H38.6797Z" fill="white"/>
<path d="M68.1831 1.58521C69.6073 2.83752 70.7564 5.02509 70.7564 8.03698C70.7564 10.6843 69.8662 12.9511 68.3449 14.3302C67.4386 15.1863 65.885 16.0898 63.5545 16.0898C61.224 16.0898 59.6703 15.1863 58.764 14.3302C57.2427 12.9511 56.3688 10.6843 56.3688 8.03698C56.3688 5.02509 57.5017 2.83752 58.9259 1.58521C60.3501 0.332893 62.2274 0 63.5545 0C64.8816 0 66.6456 0.237781 68.1831 1.58521ZM61.2078 4.10567C60.9003 4.58123 60.3663 5.67502 60.3663 7.98942C60.3663 10.3038 60.8841 11.4452 61.2078 11.9683C61.5315 12.4914 62.4216 13.3474 63.5545 13.3474C64.6874 13.3474 65.4642 12.6658 65.9012 11.9683C66.3382 11.2708 66.7427 10.3197 66.7427 7.98942C66.7427 5.65917 66.2087 4.58123 65.9012 4.10567C65.2376 3.04358 64.4123 2.72655 63.5545 2.72655C62.6968 2.72655 61.8876 3.04358 61.2078 4.10567Z" fill="white"/>
<path d="M80.4506 0.221913C82.3117 0.221913 83.7845 0.697483 84.6422 1.45838C85.5 2.21928 86.0826 3.29722 86.0826 4.78731C86.0826 6.81637 84.9659 8.35402 83.2666 9.0198L86.3901 15.8679H82.2794L79.7061 9.70145H76.971V15.8679H73.2325V0.221913H80.4506ZM76.971 6.9749H79.7061C80.402 6.9749 81.1465 6.94319 81.7615 6.37252C81.9592 6.18344 82.1145 5.95614 82.2176 5.70506C82.3207 5.45397 82.3693 5.18462 82.3603 4.91414C82.3661 4.64118 82.3129 4.37009 82.2041 4.11873C82.0954 3.86737 81.9335 3.64142 81.7291 3.45574C81.1789 2.99603 80.2402 2.96433 79.787 2.96433H76.971V6.9749Z" fill="white"/>
<path d="M92.8799 12.9828H99.6772V15.8679H89.1576V0.221913H92.8799V12.9828Z" fill="white"/>
<path d="M107.106 0.221913C108.692 0.221913 111.087 0.396294 112.932 2.25098C114.421 3.72522 115.117 6.15059 115.117 8.02113C115.117 9.38441 114.744 12.1902 112.689 14.0925C111.071 15.5826 109.226 15.8679 107.51 15.8679H101.635V0.221913H107.106ZM107.041 12.9828C108.044 12.9828 109.371 12.7926 110.229 11.4452C111.087 10.0977 111.119 8.5284 111.119 7.87846C111.119 7.22853 111.022 5.38969 110.019 4.23249C109.015 3.07529 107.882 3.09115 106.976 3.09115H105.358V12.9828H107.041Z" fill="white"/>
<path d="M134.084 1.58521C135.509 2.83752 136.641 5.02509 136.641 8.03698C136.641 10.6843 135.767 12.9511 134.246 14.3302C133.34 15.1863 131.786 16.0898 129.456 16.0898C127.125 16.0898 125.572 15.1863 124.665 14.3302C123.144 12.9511 122.254 10.6843 122.254 8.03698C122.254 5.02509 123.403 2.83752 124.827 1.58521C126.251 0.332893 128.129 0 129.456 0C130.783 0 132.547 0.237781 134.084 1.58521ZM127.109 4.10567C126.802 4.58123 126.267 5.67502 126.267 7.98942C126.267 10.3038 126.769 11.4452 127.109 11.9683C127.449 12.4914 128.307 13.3474 129.456 13.3474C130.605 13.3474 131.365 12.6658 131.802 11.9683C132.239 11.2708 132.644 10.3197 132.644 7.98942C132.644 5.65917 132.11 4.58123 131.802 4.10567C131.123 3.04358 130.313 2.72655 129.456 2.72655C128.598 2.72655 127.773 3.04358 127.109 4.10567Z" fill="white"/>
<path d="M149.977 3.09115H142.856V6.46763H148.569V9.11493H142.856V15.8679H139.134V0.221913H149.977V3.09115Z" fill="white"/>
</svg>
