<svg width="18" height="10" viewBox="0 0 18 10" fill="none" xmlns="http://www.w3.org/2000/svg">
<path d="M1.35218 1.30592C1.57776 1.11004 1.88366 1 2.20262 1C2.52157 1 2.82747 1.11004 3.05305 1.30592L9.00726 6.47795L14.9615 1.30592C15.1883 1.11559 15.4922 1.01027 15.8076 1.01266C16.123 1.01504 16.4247 1.12492 16.6477 1.31865C16.8707 1.51237 16.9972 1.77443 17 2.04839C17.0027 2.32235 16.8815 2.58628 16.6623 2.78334L9.85769 8.69408C9.63212 8.88996 9.32622 9 9.00726 9C8.6883 9 8.3824 8.88996 8.15683 8.69408L1.35218 2.78334C1.12668 2.5874 1 2.32169 1 2.04463C1 1.76757 1.12668 1.50186 1.35218 1.30592Z" fill="white" stroke="white"/>
</svg>
