<svg width="30" height="28" viewBox="0 0 30 28" fill="none" xmlns="http://www.w3.org/2000/svg">
<path d="M0.592885 11.782C0.988142 11.394 1.45613 11.2 1.99684 11.2C2.5365 11.2 3.00395 11.394 3.39921 11.782L14.9802 23.1501L26.6008 11.7432C26.9697 11.3811 27.4308 11.2 27.9842 11.2C28.5376 11.2 29.0119 11.394 29.4071 11.782C29.8024 12.17 30 12.6294 30 13.1601C30 13.6899 29.8024 14.1487 29.4071 14.5367L16.087 27.5732C15.9289 27.7284 15.7576 27.8386 15.5731 27.9038C15.3887 27.9679 15.191 28 14.9802 28C14.7694 28 14.5718 27.9679 14.3874 27.9038C14.2029 27.8386 14.0316 27.7284 13.8735 27.5732L0.55336 14.4979C0.184454 14.1358 -2.36281e-08 13.6899 0 13.1601C2.36742e-08 12.6294 0.197629 12.17 0.592885 11.782Z" fill="white"/>
<path d="M0.592885 0.581986C0.988142 0.193995 1.45613 -2.31625e-08 1.99684 0C2.5365 2.31174e-08 3.00395 0.193995 3.39921 0.581986L14.9802 11.9501L26.6008 0.543188C26.9697 0.181063 27.4308 1.08952e-06 27.9842 1.11322e-06C28.5376 1.13693e-06 29.0119 0.193997 29.4071 0.581987C29.8024 0.969978 30 1.42936 30 1.96013C30 2.48987 29.8024 2.94873 29.4071 3.33672L16.087 16.3732C15.9289 16.5284 15.7576 16.6386 15.5731 16.7038C15.3887 16.7679 15.191 16.8 14.9802 16.8C14.7694 16.8 14.5718 16.7679 14.3874 16.7038C14.2029 16.6386 14.0316 16.5284 13.8735 16.3732L0.55336 3.29792C0.184454 2.9358 -2.36281e-08 2.48987 0 1.96013C2.36742e-08 1.42936 0.197629 0.969977 0.592885 0.581986Z" fill="white"/>
</svg>
