<svg width="64" height="46" viewBox="0 0 64 46" fill="none" xmlns="http://www.w3.org/2000/svg">
<path d="M35.6923 41.1579L35.6923 14.5263C35.6923 10.6737 37.2483 6.97887 40.0181 4.25466C42.7879 1.53044 46.5445 -1.52601e-06 50.4615 -1.18357e-06C51.1144 -1.1265e-06 51.7405 0.255069 52.2021 0.709105C52.6637 1.16314 52.9231 1.77895 52.9231 2.42105C52.9231 3.06316 52.6637 3.67896 52.2021 4.13299C51.7405 4.58703 51.1144 4.8421 50.4615 4.8421C47.8527 4.85008 45.353 5.87295 43.5082 7.68736C41.6635 9.50177 40.6235 11.9604 40.6154 14.5263L40.6154 16.9474L59.0769 16.9474C60.3826 16.9474 61.6348 17.4575 62.5581 18.3656C63.4813 19.2737 64 20.5053 64 21.7895L64 41.1579C64 42.4421 63.4813 43.6737 62.5581 44.5818C61.6348 45.4899 60.3826 46 59.0769 46L40.6154 46C39.3097 46 38.0575 45.4898 37.1342 44.5818C36.211 43.6737 35.6923 42.4421 35.6923 41.1579ZM4.92307 46L23.3846 46C24.6903 46 25.9425 45.4898 26.8657 44.5818C27.789 43.6737 28.3077 42.4421 28.3077 41.1579L28.3077 21.7895C28.3077 20.5053 27.789 19.2737 26.8658 18.3656C25.9425 17.4575 24.6903 16.9474 23.3846 16.9474L4.92307 16.9474L4.92307 14.5263C4.93119 11.9604 5.97115 9.50177 7.81591 7.68736C9.66067 5.87294 12.1604 4.85008 14.7692 4.8421C15.4221 4.8421 16.0482 4.58703 16.5098 4.13299C16.9714 3.67895 17.2308 3.06315 17.2308 2.42105C17.2308 1.77895 16.9714 1.16314 16.5098 0.709102C16.0482 0.255066 15.4221 -4.24682e-06 14.7692 -4.30389e-06C10.8522 -4.64633e-06 7.09557 1.53044 4.3258 4.25465C1.55603 6.97886 -4.54107e-06 10.6737 -4.87788e-06 14.5263L-7.20608e-06 41.1579C-7.31835e-06 42.4421 0.518673 43.6737 1.44193 44.5818C2.36518 45.4898 3.61739 46 4.92307 46Z" fill="#FFD914"/>
</svg>
