<svg width="25" height="17" viewBox="0 0 25 17" fill="none" xmlns="http://www.w3.org/2000/svg">
<path d="M0.0850001 1.57462L11.1788 11.0054C11.5069 11.2845 11.9453 11.4503 12.409 11.4705C12.8727 11.4907 13.3287 11.364 13.6888 11.1148L13.8313 11.0054L24.9175 1.581C24.9538 1.69787 24.9775 1.81687 24.99 1.93906L25 2.125V14.875C25.0002 15.4111 24.762 15.9275 24.3331 16.3206C23.9043 16.7137 23.3164 16.9545 22.6875 16.9947L22.5 17H2.5C1.86928 17.0002 1.26179 16.7977 0.799315 16.4332C0.336838 16.0686 0.0535542 15.569 0.00625014 15.0344L0 14.875V2.125C0 1.9975 0.0125 1.87425 0.0375 1.75313L0.0850001 1.57462ZM22.5 0C22.6513 0 22.8 0.0106251 22.9438 0.0329376L23.1562 0.0743752L12.5063 9.12687L1.8525 0.0722498C1.99 0.0403748 2.1325 0.0191249 2.2775 0.00849989L2.5 0H22.5Z" fill="white"/>
</svg>
