<svg width="26" height="26" viewBox="0 0 26 26" fill="none" xmlns="http://www.w3.org/2000/svg">
<path d="M24.96 0H1.04C0.46475 0 0 0.46475 0 1.04V24.96C0 25.5352 0.46475 26 1.04 26H24.96C25.5352 26 26 25.5352 26 24.96V1.04C26 0.46475 25.5352 0 24.96 0ZM21.957 7.58875H19.8802C18.252 7.58875 17.9368 8.36225 17.9368 9.49975V12.0055H21.8237L21.3167 15.9282H17.9368V26H13.884V15.9315H10.4942V12.0055H13.884V9.113C13.884 5.75575 15.9347 3.926 18.9312 3.926C20.3678 3.926 21.5995 4.03325 21.9602 4.082V7.58875H21.957Z" fill="white"/>
</svg>
