<svg width="21" height="27" viewBox="0 0 21 27" fill="none" xmlns="http://www.w3.org/2000/svg">
<path d="M10.5 0C7.71624 0.0033176 5.04743 1.12192 3.07901 3.11042C1.1106 5.09893 0.00329525 7.79497 1.11709e-05 10.6071C-0.00332295 12.9053 0.739765 15.141 2.11528 16.9714C2.11528 16.9714 2.40165 17.3523 2.44842 17.4073L10.5 27L18.5554 17.4025C18.5974 17.3514 18.8847 16.9714 18.8847 16.9714L18.8857 16.9685C20.2605 15.1389 21.0033 12.9042 21 10.6071C20.9967 7.79497 19.8894 5.09893 17.921 3.11042C15.9526 1.12192 13.2838 0.0033176 10.5 0ZM10.5 14.4643C9.74484 14.4643 9.00663 14.2381 8.37873 13.8142C7.75084 13.3904 7.26145 12.788 6.97246 12.0832C6.68348 11.3784 6.60786 10.6029 6.75519 9.85465C6.90251 9.10644 7.26616 8.41916 7.80014 7.87973C8.33412 7.3403 9.01446 6.97294 9.75511 6.82411C10.4958 6.67528 11.2635 6.75167 11.9612 7.04361C12.6588 7.33555 13.2552 7.82993 13.6747 8.46423C14.0942 9.09853 14.3182 9.84427 14.3182 10.6071C14.3169 11.6297 13.9142 12.6101 13.1985 13.3331C12.4827 14.0562 11.5123 14.463 10.5 14.4643Z" fill="white"/>
</svg>
