<svg width="17" height="29" viewBox="0 0 17 29" fill="none" xmlns="http://www.w3.org/2000/svg">
<path d="M10.3214 25.0455H6.67857C6.51667 25.0455 6.375 24.9795 6.25357 24.8477C6.13214 24.7159 6.07143 24.5621 6.07143 24.3864C6.07143 24.2106 6.13214 24.0568 6.25357 23.925C6.375 23.7932 6.51667 23.7273 6.67857 23.7273H10.3214C10.4833 23.7273 10.625 23.7932 10.7464 23.925C10.8679 24.0568 10.9286 24.2106 10.9286 24.3864C10.9286 24.5621 10.8679 24.7159 10.7464 24.8477C10.625 24.9795 10.4833 25.0455 10.3214 25.0455ZM14.5714 29C15.2393 29 15.8108 28.7421 16.286 28.2262C16.762 27.7095 17 27.0886 17 26.3636V2.63636C17 1.91136 16.762 1.2905 16.286 0.773773C15.8108 0.257924 15.2393 0 14.5714 0H2.42857C1.76071 0 1.18879 0.257924 0.712786 0.773773C0.237595 1.2905 0 1.91136 0 2.63636V26.3636C0 27.0886 0.237595 27.7095 0.712786 28.2262C1.18879 28.7421 1.76071 29 2.42857 29H14.5714ZM14.5714 20.5783H2.42857V2.56313H14.5714V20.5783Z" fill="white"/>
</svg>
