<svg width="26" height="27" viewBox="0 0 26 27" fill="none" xmlns="http://www.w3.org/2000/svg">
<path d="M26 8.34871V13.2542C26 13.5144 25.8946 13.7639 25.7071 13.9479C25.5196 14.1319 25.2652 14.2352 25 14.2352C22.9111 14.2406 20.8521 13.7482 19 12.8004V17.1785C19.0002 18.9517 18.4849 20.6881 17.5145 22.184C16.5441 23.6798 15.1589 24.8731 13.5215 25.6237C11.8841 26.3743 10.0624 26.6511 8.2703 26.4216C6.47817 26.1921 4.78997 25.4658 3.40383 24.3279C2.01769 23.1901 0.991144 21.6879 0.444672 19.9978C-0.101799 18.3076 -0.145516 16.4996 0.318652 14.7859C0.782821 13.0723 1.73561 11.5241 3.0652 10.323C4.39478 9.12198 6.04599 8.31796 7.825 8.00533C7.96774 7.9802 8.11434 7.98583 8.25464 8.02183C8.39494 8.05783 8.52558 8.12334 8.6375 8.21381C8.75287 8.30517 8.84548 8.42113 8.9083 8.55289C8.97112 8.68464 9.00248 8.82872 9 8.97415V14.0758C9.00053 14.2616 8.94661 14.4436 8.84467 14.6001C8.74272 14.7567 8.59704 14.8812 8.425 14.9588C8.02144 15.1474 7.67679 15.4386 7.42696 15.8023C7.17712 16.1659 7.03123 16.5887 7.00449 17.0264C6.97774 17.4642 7.07111 17.901 7.27488 18.2913C7.47865 18.6816 7.78537 19.0112 8.16308 19.2457C8.54079 19.4802 8.97568 19.6111 9.42246 19.6247C9.86925 19.6383 10.3116 19.5342 10.7034 19.3231C11.0952 19.112 11.4221 18.8017 11.6502 18.4245C11.8782 18.0473 11.999 17.617 12 17.1785V1.48109C12 1.22089 12.1054 0.971344 12.2929 0.787354C12.4804 0.603364 12.7348 0.5 13 0.5H18C18.2652 0.5 18.5196 0.603364 18.7071 0.787354C18.8946 0.971344 19 1.22089 19 1.48109C19 3.04229 19.6321 4.53956 20.7574 5.64349C21.8826 6.74743 23.4087 7.36762 25 7.36762C25.2652 7.36762 25.5196 7.47098 25.7071 7.65497C25.8946 7.83896 26 8.08851 26 8.34871Z" fill="white"/>
</svg>
