<svg width="32" height="32" viewBox="0 0 32 32" fill="none" xmlns="http://www.w3.org/2000/svg">
<path d="M32 9.65995V15.6974C32 16.0177 31.8703 16.3248 31.6395 16.5512C31.4087 16.7777 31.0957 16.9049 30.7692 16.9049C28.1983 16.9115 25.6641 16.3055 23.3846 15.139V20.5274C23.3849 22.7097 22.7506 24.8469 21.5563 26.688C20.362 28.529 18.6571 29.9977 16.6418 30.9215C14.6266 31.8453 12.3845 32.186 10.1788 31.9035C7.97314 31.621 5.89535 30.7271 4.18933 29.3267C2.48331 27.9263 1.21987 26.0775 0.547289 23.9973C-0.125292 21.9171 -0.179097 19.6918 0.392188 17.5827C0.963472 15.4736 2.13614 13.5681 3.77255 12.0899C5.40896 10.6117 7.44121 9.62211 9.63077 9.23733C9.80645 9.2064 9.98688 9.21333 10.1596 9.25764C10.3322 9.30195 10.493 9.38257 10.6308 9.49392C10.7728 9.60636 10.8868 9.74908 10.9641 9.91125C11.0414 10.0734 11.08 10.2507 11.0769 10.4297V16.7087C11.0776 16.9373 11.0112 17.1613 10.8857 17.354C10.7603 17.5467 10.581 17.6999 10.3692 17.7954C9.87254 18.0275 9.44836 18.386 9.14087 18.8336C8.83338 19.2812 8.65382 19.8014 8.6209 20.3402C8.58799 20.879 8.70291 21.4166 8.9537 21.897C9.2045 22.3774 9.58199 22.783 10.0469 23.0717C10.5117 23.3603 11.047 23.5214 11.5969 23.5381C12.1468 23.5549 12.6912 23.4266 13.1734 23.1668C13.6556 22.907 14.058 22.5251 14.3387 22.0609C14.6194 21.5967 14.768 21.0671 14.7692 20.5274V1.20749C14.7692 0.887246 14.8989 0.580116 15.1297 0.353667C15.3605 0.127218 15.6736 0 16 0H22.1538C22.4803 0 22.7933 0.127218 23.0241 0.353667C23.2549 0.580116 23.3846 0.887246 23.3846 1.20749C23.3846 3.12898 24.1626 4.97176 25.5475 6.33046C26.9324 7.68915 28.8107 8.45246 30.7692 8.45246C31.0957 8.45246 31.4087 8.57967 31.6395 8.80612C31.8703 9.03257 32 9.3397 32 9.65995Z" fill="#22F3F3"/>
</svg>
