<svg width="40" height="32" viewBox="0 0 40 32" fill="none" xmlns="http://www.w3.org/2000/svg">
<path d="M39.3846 3.76471C37.935 4.42353 36.3724 4.85647 34.7533 5.06353C36.4101 4.06588 37.6903 2.48471 38.2927 0.583529C36.7301 1.52471 34.9981 2.18353 33.1719 2.56C31.6847 0.941177 29.5949 0 27.2228 0C22.7986 0 19.184 3.61412 19.184 8.07529C19.184 8.71529 19.2593 9.33647 19.3911 9.92C12.6889 9.58118 6.72099 6.36235 2.74864 1.48706C2.05207 2.67294 1.65671 4.06588 1.65671 5.53412C1.65671 8.33882 3.06869 10.8235 5.25254 12.2353C3.91587 12.2353 2.67333 11.8588 1.58141 11.2941V11.3506C1.58141 15.2659 4.3677 18.5412 8.05766 19.2753C6.87297 19.5995 5.62924 19.6446 4.42418 19.4071C4.93552 21.0117 5.93694 22.4158 7.28769 23.422C8.63844 24.4281 10.2706 24.9858 11.9547 25.0165C9.09994 27.2761 5.56128 28.4975 1.92028 28.48C1.28019 28.48 0.640094 28.4424 0 28.3671C3.577 30.6635 7.83174 32 12.3877 32C27.2228 32 35.3746 19.6894 35.3746 9.01647C35.3746 8.65882 35.3746 8.32 35.3558 7.96235C36.9372 6.83294 38.2927 5.40235 39.3846 3.76471Z" fill="#56B7ED"/>
</svg>
