<svg width="61" height="26" viewBox="0 0 61 26" fill="none" xmlns="http://www.w3.org/2000/svg">
<path d="M0 13C0 11.8954 0.895431 11 2 11H58C59.1046 11 60 11.8954 60 13C60 14.1046 59.1046 15 58 15H2C0.895432 15 0 14.1046 0 13Z" fill="white"/>
<path d="M46.5196 25.4862C46.1732 25.1436 46 24.738 46 24.2694C46 23.8017 46.1732 23.3966 46.5196 23.054L56.6697 13.0171L46.485 2.94598C46.1617 2.62626 46 2.22661 46 1.74704C46 1.26746 46.1732 0.85639 46.5196 0.513834C46.8661 0.171278 47.2762 0 47.7501 0C48.2231 0 48.6328 0.171278 48.9792 0.513834L60.6189 12.058C60.7575 12.195 60.8559 12.3434 60.9141 12.5033C60.9714 12.6632 61 12.8344 61 13.0171C61 13.1998 60.9714 13.3711 60.9141 13.531C60.8559 13.6908 60.7575 13.8393 60.6189 13.9763L48.9446 25.5204C48.6212 25.8401 48.2231 26 47.7501 26C47.2762 26 46.8661 25.8287 46.5196 25.4862Z" fill="white"/>
</svg>
