<svg width="65" height="50" viewBox="0 0 65 50" fill="none" xmlns="http://www.w3.org/2000/svg">
<path d="M27.5844 12.8875C27.2806 12.6657 26.9233 12.5339 26.5514 12.5066C26.1795 12.4793 25.8074 12.5575 25.476 12.7326C25.1445 12.9078 24.8665 13.1731 24.6723 13.4995C24.4781 13.826 24.3752 14.2009 24.375 14.5833V35.4167C24.3752 35.7991 24.4781 36.174 24.6723 36.5005C24.8665 36.8269 25.1445 37.0923 25.476 37.2674C25.8074 37.4425 26.1795 37.5207 26.5514 37.4934C26.9233 37.4661 27.2806 37.3343 27.5844 37.1125L41.8031 26.6958C42.0664 26.5031 42.2811 26.2487 42.4291 25.9537C42.5772 25.6588 42.6545 25.3318 42.6545 25C42.6545 24.6682 42.5772 24.3413 42.4291 24.0463C42.2811 23.7513 42.0664 23.4969 41.8031 23.3042L27.5844 12.8875Z" fill="white"/>
<path d="M0 8.33333C0 6.1232 0.856025 4.00358 2.37976 2.44078C3.90349 0.877973 5.97012 0 8.125 0H56.875C59.0299 0 61.0965 0.877973 62.6202 2.44078C64.144 4.00358 65 6.1232 65 8.33333V41.6667C65 43.8768 64.144 45.9964 62.6202 47.5592C61.0965 49.122 59.0299 50 56.875 50H8.125C5.97012 50 3.90349 49.122 2.37976 47.5592C0.856025 45.9964 0 43.8768 0 41.6667V8.33333ZM60.9375 8.33333C60.9375 7.22826 60.5095 6.16846 59.7476 5.38705C58.9858 4.60565 57.9524 4.16667 56.875 4.16667H8.125C7.04756 4.16667 6.01425 4.60565 5.25238 5.38705C4.49051 6.16846 4.0625 7.22826 4.0625 8.33333V41.6667C4.0625 42.7717 4.49051 43.8315 5.25238 44.6129C6.01425 45.3943 7.04756 45.8333 8.125 45.8333H56.875C57.9524 45.8333 58.9858 45.3943 59.7476 44.6129C60.5095 43.8315 60.9375 42.7717 60.9375 41.6667V8.33333Z" fill="white"/>
</svg>
