<svg width="36" height="36" viewBox="0 0 36 36" fill="none" xmlns="http://www.w3.org/2000/svg">
<path fill-rule="evenodd" clip-rule="evenodd" d="M18 5.99999C19.2825 5.99999 20.598 6.03299 21.873 6.08699L23.379 6.15899L24.8205 6.24449L26.1705 6.33599L27.4035 6.43199C28.7416 6.53441 30.0007 7.10541 30.9593 8.04455C31.9179 8.98369 32.5146 10.2308 32.6445 11.5665L32.7045 12.204L32.817 13.569C32.922 14.9835 33 16.5255 33 18C33 19.4745 32.922 21.0165 32.817 22.431L32.7045 23.796C32.685 24.015 32.6655 24.2265 32.6445 24.4335C32.5146 25.7694 31.9177 27.0167 30.9587 27.9559C29.9998 28.8951 28.7403 29.4659 27.402 29.568L26.172 29.6625L24.822 29.7555L23.379 29.841L21.873 29.913C20.5828 29.9691 19.2915 29.9981 18 30C16.7085 29.9981 15.4173 29.9691 14.127 29.913L12.621 29.841L11.1795 29.7555L9.82951 29.6625L8.59651 29.568C7.25843 29.4656 5.99933 28.8946 5.04072 27.9554C4.0821 27.0163 3.48537 25.7692 3.35551 24.4335L3.29551 23.796L3.18301 22.431C3.06831 20.9567 3.00727 19.4787 3.00001 18C3.00001 16.5255 3.07801 14.9835 3.18301 13.569L3.29551 12.204C3.31501 11.985 3.33451 11.7735 3.35551 11.5665C3.48532 10.231 4.08183 8.98412 5.04014 8.04501C5.99846 7.1059 7.2572 6.53475 8.59501 6.43199L9.82651 6.33599L11.1765 6.24449L12.6195 6.15899L14.1255 6.08699C15.4163 6.03094 16.708 6.00194 18 5.99999ZM15 14.3625V21.6375C15 22.3305 15.75 22.7625 16.35 22.4175L22.65 18.78C22.7871 18.7011 22.901 18.5874 22.9801 18.4505C23.0593 18.3136 23.101 18.1582 23.101 18C23.101 17.8418 23.0593 17.6864 22.9801 17.5495C22.901 17.4126 22.7871 17.2989 22.65 17.22L16.35 13.584C16.2131 13.505 16.0579 13.4634 15.8999 13.4634C15.7418 13.4634 15.5866 13.5051 15.4498 13.5841C15.3129 13.6632 15.1993 13.7769 15.1204 13.9138C15.0414 14.0507 14.9999 14.206 15 14.364V14.3625Z" fill="white"/>
</svg>
